<?xml version="1.0" encoding="UTF-8"?>
<svg id="Layer_1" data-name="Layer 1" xmlns="http://www.w3.org/2000/svg" version="1.1" viewBox="0 0 147.4 80.7">
  <defs>
    <style>
      .cls-1 {
        fill: #fafafa;
      }

      .cls-1, .cls-2 {
        stroke-width: 0px;
      }

      .cls-2 {
        fill: #fff;
      }
    </style>
  </defs>
  <g>
    <path class="cls-2" d="M64.9,38.7h4v5.8c0,2.9-1.5,4.6-4.3,4.6s-4.3-1.7-4.3-4.6v-9.5c0-2.9,1.5-4.6,4.3-4.6s4.3,1.7,4.3,4.6v1.8h-2.7v-2c0-1.3-.6-1.8-1.5-1.8s-1.5.5-1.5,1.8v9.8c0,1.3.6,1.8,1.5,1.8s1.5-.5,1.5-1.8v-3.4h-1.3v-2.6Z"/>
    <path class="cls-2" d="M80.5,42.1v2.4c0,2.9-1.5,4.6-4.3,4.6s-4.3-1.7-4.3-4.6v-9.5c0-2.9,1.5-4.6,4.3-4.6s4.3,1.7,4.3,4.6v1.8h-2.7v-2c0-1.3-.6-1.8-1.5-1.8s-1.5.5-1.5,1.8v9.8c0,1.3.6,1.8,1.5,1.8s1.5-.5,1.5-1.8v-2.6h2.7Z"/>
    <path class="cls-2" d="M87.8,33c-.9,0-1.5.5-1.5,1.8v2h-2.7v-1.8c0-2.9,1.5-4.6,4.3-4.6s4.3,1.7,4.3,4.6-.9,4.4-3.5,7.2c-1.7,1.8-2.2,2.7-2.2,3.6s0,.3,0,.4h5.4v2.6h-8.3v-2.2c0-2,.7-3.6,2.9-5.8,2.2-2.3,2.8-3.8,2.8-5.7s-.6-2.1-1.5-2.1Z"/>
    <path class="cls-2" d="M95.1,35c0-2.9,1.5-4.6,4.3-4.6s4.3,1.7,4.3,4.6v9.5c0,2.9-1.5,4.6-4.3,4.6s-4.3-1.7-4.3-4.6v-9.5ZM97.9,44.7c0,1.3.6,1.8,1.5,1.8s1.5-.5,1.5-1.8v-9.8c0-1.3-.6-1.8-1.5-1.8s-1.5.5-1.5,1.8v9.8Z"/>
    <path class="cls-2" d="M112.6,35.1c0-1.6-.6-2.1-1.5-2.1s-1.5.5-1.5,1.8v1.2h-2.7v-1c0-2.9,1.5-4.6,4.3-4.6s4.3,1.7,4.3,4.6v.5c0,2-.6,3.2-2,3.7h0c1.4.7,2,2,2,3.9v1.4c0,2.9-1.5,4.6-4.3,4.6s-4.3-1.7-4.3-4.6v-1.5h2.7v1.7c0,1.3.6,1.8,1.5,1.8s1.5-.4,1.5-2.1v-1.4c0-1.7-.6-2.3-1.9-2.3h-1v-2.6h1.1c1.1,0,1.7-.5,1.7-1.9v-1Z"/>
    <path class="cls-2" d="M118.5,35c0-2.9,1.5-4.6,4.3-4.6s4.3,1.7,4.3,4.6v9.5c0,2.9-1.5,4.6-4.3,4.6s-4.3-1.7-4.3-4.6v-9.5ZM121.4,44.7c0,1.3.6,1.8,1.5,1.8s1.5-.5,1.5-1.8v-9.8c0-1.3-.6-1.8-1.5-1.8s-1.5.5-1.5,1.8v9.8Z"/>
  </g>
  <polygon class="cls-1" points="34 19.6 11.4 58 34 43.2 34 19.6"/>
  <polygon class="cls-1" points="57.7 58 35 19.6 35 43.2 57.7 58"/>
  <polygon class="cls-1" points="11.8 58.9 57.3 58.9 34.5 44 11.8 58.9"/>
</svg>